<svg width="85" height="85" viewBox="0 0 85 85" fill="none" xmlns="http://www.w3.org/2000/svg">
    <path d="M42.5007 56.6666C46.2579 56.6666 49.8612 55.174 52.518 52.5173C55.1748 49.8605 56.6673 46.2572 56.6673 42.4999C56.6673 38.7427 55.1748 35.1393 52.518 32.4826C49.8612 29.8258 46.2579 28.3333 42.5007 28.3333C38.7434 28.3333 35.1401 29.8258 32.4833 32.4826C29.8265 35.1393 28.334 38.7427 28.334 42.4999C28.334 46.2572 29.8265 49.8605 32.4833 52.5173C35.1401 55.174 38.7434 56.6666 42.5007 56.6666Z" stroke="currentColor" stroke-width="5.3125" stroke-linecap="round" stroke-linejoin="round"/>
    <path d="M10.625 56.6667V28.3333C10.625 23.6368 12.4907 19.1326 15.8117 15.8117C19.1326 12.4907 23.6368 10.625 28.3333 10.625H56.6667C61.3632 10.625 65.8674 12.4907 69.1884 15.8117C72.5093 19.1326 74.375 23.6368 74.375 28.3333V56.6667C74.375 61.3632 72.5093 65.8674 69.1884 69.1884C65.8674 72.5093 61.3632 74.375 56.6667 74.375H28.3333C23.6368 74.375 19.1326 72.5093 15.8117 69.1884C12.4907 65.8674 10.625 61.3632 10.625 56.6667Z" stroke="currentColor" stroke-width="5.3125"/>
    <path d="M61.9785 23.0563L62.0139 23.0173" stroke="currentColor" stroke-width="5.3125" stroke-linecap="round" stroke-linejoin="round"/>
</svg>
