<svg width="85" height="85" viewBox="0 0 85 85" fill="none" xmlns="http://www.w3.org/2000/svg">
    <path fill-rule="evenodd" clip-rule="evenodd" d="M14.166 26.3096V58.6905C14.166 60.8375 15.0189 62.8966 16.5371 64.4147C18.0552 65.9329 20.1143 66.7858 22.2613 66.7858H62.7374C64.8844 66.7858 66.9435 65.9329 68.4616 64.4147C69.9798 62.8966 70.8327 60.8375 70.8327 58.6905V26.3096C70.8327 24.1626 69.9798 22.1035 68.4616 20.5854C66.9435 19.0672 64.8844 18.2144 62.7374 18.2144H22.2613C20.1143 18.2144 18.0552 19.0672 16.5371 20.5854C15.0189 22.1035 14.166 24.1626 14.166 26.3096Z" stroke="currentColor" stroke-width="4.04762" stroke-linecap="round" stroke-linejoin="round"/>
    <path d="M22.2617 30.3572L42.4998 42.5L62.7379 30.3572" stroke="currentColor" stroke-width="4.04762" stroke-linecap="round" stroke-linejoin="round"/>
</svg>
