<svg width="85" height="85" viewBox="0 0 85 85" fill="none" xmlns="http://www.w3.org/2000/svg">
    <path d="M73.5748 53.2246L57.8897 46.1955C57.179 45.891 56.4036 45.7686 55.6337 45.8393C54.8637 45.9101 54.1236 46.1717 53.4803 46.6006C53.415 46.6425 53.3529 46.6891 53.2944 46.7401L45.0965 53.7127C45.0115 53.7591 44.9168 53.7851 44.82 53.7885C44.7231 53.792 44.6269 53.7728 44.5387 53.7327C39.2694 51.1893 33.8108 45.7639 31.2575 40.5676C31.2149 40.4808 31.1928 40.3854 31.1928 40.2887C31.1928 40.192 31.2149 40.0966 31.2575 40.0098L38.2534 31.709C38.3036 31.6476 38.3501 31.5833 38.3928 31.5164C38.8158 30.8707 39.0713 30.1297 39.1362 29.3605C39.2011 28.5912 39.0734 27.8179 38.7647 27.1104L31.7854 11.4518C31.389 10.5275 30.7036 9.75658 29.8319 9.25489C28.9602 8.7532 27.9494 8.54775 26.951 8.66937C22.6121 9.23979 18.6294 11.3706 15.747 14.6635C12.8647 17.9565 11.28 22.1863 11.2891 26.5625C11.2891 52.5606 32.4395 73.711 58.4375 73.711C62.8136 73.7194 67.043 72.1344 70.3358 69.2522C73.6286 66.37 75.7596 62.3877 76.3307 58.0491C76.4521 57.0554 76.2494 56.0491 75.7529 55.1798C75.2563 54.3106 74.4924 53.6248 73.5748 53.2246ZM58.4375 69.7266C34.6375 69.7266 15.2735 50.3625 15.2735 26.5625C15.2624 23.1557 16.492 19.8613 18.7327 17.2949C20.9734 14.7285 24.0718 13.0658 27.4491 12.6172H27.5254C27.6592 12.6197 27.7892 12.6626 27.8982 12.7402C28.0072 12.8178 28.0902 12.9266 28.1364 13.0522L35.1422 28.6942C35.1822 28.7811 35.2029 28.8757 35.2029 28.9714C35.2029 29.0671 35.1822 29.1617 35.1422 29.2487L28.133 37.5694C28.0808 37.6288 28.033 37.692 27.9903 37.7586C27.5517 38.4282 27.2934 39.1997 27.2405 39.9983C27.1875 40.797 27.3417 41.5958 27.6881 42.3174C30.6332 48.3471 36.7094 54.3768 42.8055 57.3219C43.5313 57.6664 44.334 57.8169 45.1353 57.7587C45.9366 57.7005 46.7092 57.4356 47.3776 56.9899C47.4407 56.9467 47.5037 56.9002 47.5635 56.8504L55.758 49.8778C55.839 49.8343 55.9284 49.8088 56.02 49.8031C56.1117 49.7973 56.2036 49.8115 56.2893 49.8446L71.9778 56.8737C72.1059 56.9282 72.2137 57.0217 72.2858 57.1409C72.3579 57.2601 72.3907 57.3989 72.3795 57.5377C71.9334 60.9165 70.2721 64.0172 67.7063 66.2604C65.1405 68.5036 61.8457 69.7358 58.4375 69.7266Z" fill="currentColor"/>
</svg>
